<svg xmlns="http://www.w3.org/2000/svg" xmlns:xlink="http://www.w3.org/1999/xlink" width="500" zoomAndPan="magnify" viewBox="0 0 375 374.999991" height="500" preserveAspectRatio="xMidYMid meet" version="1.0"><defs><clipPath id="24ae5f5392"><path d="M 63.566406 30.136719 L 311.066406 30.136719 L 311.066406 375 L 63.566406 375 Z M 63.566406 30.136719 " clip-rule="nonzero"/></clipPath></defs><rect x="-37.5" width="450" fill="#ffffff" y="-37.499999" height="449.999989" fill-opacity="1"/><rect x="-37.5" width="450" fill="#000000" y="-37.499999" height="449.999989" fill-opacity="1"/><path fill="#ffffff" d="M 173.898438 256.90625 L 176.167969 253.539062 L 178.476562 255.515625 L 178.898438 262.070312 Z M 180.0625 265.695312 C 180.199219 265.695312 180.335938 265.667969 180.464844 265.609375 C 180.84375 265.441406 181.082031 265.054688 181.054688 264.636719 L 180.429688 254.96875 C 180.414062 254.703125 180.289062 254.453125 180.085938 254.28125 L 176.617188 251.304688 C 176.402344 251.121094 176.117188 251.039062 175.835938 251.078125 C 175.554688 251.113281 175.304688 251.269531 175.144531 251.503906 L 171.800781 256.460938 C 171.539062 256.851562 171.585938 257.371094 171.910156 257.710938 L 179.351562 265.390625 C 179.539062 265.589844 179.800781 265.695312 180.0625 265.695312 " fill-opacity="1" fill-rule="nonzero"/><path fill="#ffffff" d="M 201.105469 256.90625 L 196.105469 262.070312 L 196.527344 255.515625 L 198.832031 253.539062 Z M 198.386719 251.304688 L 194.914062 254.28125 C 194.710938 254.453125 194.589844 254.703125 194.570312 254.96875 L 193.949219 264.636719 C 193.921875 265.054688 194.15625 265.441406 194.539062 265.609375 C 194.667969 265.667969 194.804688 265.695312 194.9375 265.695312 C 195.203125 265.695312 195.460938 265.589844 195.652344 265.390625 L 203.09375 257.710938 C 203.417969 257.371094 203.464844 256.851562 203.203125 256.460938 L 199.855469 251.503906 C 199.699219 251.269531 199.445312 251.113281 199.167969 251.078125 C 198.882812 251.039062 198.601562 251.121094 198.386719 251.304688 " fill-opacity="1" fill-rule="nonzero"/><g clip-path="url(#24ae5f5392)"><path fill="#ffffff" d="M 306.8125 101.417969 L 294.144531 114.667969 L 296.132812 103.417969 L 303.800781 97.183594 C 303.929688 97.078125 304.027344 96.949219 304.089844 96.796875 L 308.578125 86.199219 Z M 264.652344 155.628906 L 241.140625 168.414062 L 257.121094 149.160156 L 287.273438 123.546875 Z M 225.925781 207.855469 L 221.34375 199.449219 L 234 193.144531 Z M 237.140625 191.546875 L 258.886719 177.996094 L 261.898438 197.597656 L 242.703125 209.613281 L 225.902344 213.40625 L 226.84375 210.316406 Z M 253.292969 174.0625 L 268.34375 169.761719 L 259.121094 175.507812 C 259.121094 175.507812 259.117188 175.511719 259.117188 175.511719 L 242.164062 186.074219 Z M 263.390625 194.222656 L 260.722656 176.851562 L 272.894531 169.265625 Z M 226.671875 257.199219 L 228.054688 290.375 L 206.457031 270.851562 L 221.230469 253.449219 C 221.371094 253.277344 221.457031 253.0625 221.464844 252.839844 L 221.824219 242.621094 Z M 210.992188 360.6875 L 229.316406 295.785156 L 239.914062 322.054688 Z M 145.691406 295.777344 L 164.019531 360.699219 L 135.089844 322.054688 Z M 153.179688 242.617188 L 153.539062 252.839844 C 153.546875 253.0625 153.628906 253.277344 153.773438 253.449219 L 168.546875 270.851562 L 146.949219 290.382812 L 148.332031 257.199219 Z M 132.300781 209.613281 L 113.105469 197.597656 L 116.117188 177.996094 L 137.859375 191.546875 L 148.160156 210.3125 L 149.101562 213.40625 Z M 114.28125 176.851562 L 111.613281 194.222656 L 102.109375 169.265625 Z M 121.707031 174.0625 L 132.839844 186.074219 L 115.882812 175.511719 C 115.882812 175.507812 115.882812 175.507812 115.882812 175.507812 L 106.660156 169.761719 Z M 153.660156 199.449219 L 149.074219 207.855469 L 141.003906 193.144531 Z M 87.730469 123.546875 L 117.882812 149.160156 L 133.863281 168.414062 L 110.347656 155.628906 Z M 66.425781 86.199219 L 70.914062 96.796875 C 70.976562 96.949219 71.074219 97.078125 71.199219 97.183594 L 78.871094 103.417969 L 80.859375 114.667969 L 68.191406 101.417969 Z M 95.882812 38.703125 L 87.078125 74.121094 L 80.019531 98.492188 L 76.011719 75.757812 Z M 90.347656 98.292969 C 90.359375 98.367188 90.378906 98.441406 90.40625 98.511719 L 94.117188 107.851562 L 83.105469 115.972656 L 80.804688 102.933594 L 87.542969 79.664062 Z M 94.503906 78.550781 L 99.515625 70.121094 L 96.554688 84.058594 C 96.546875 84.097656 96.539062 84.136719 96.535156 84.171875 L 94.714844 103.972656 L 92.292969 97.882812 L 91.664062 93.691406 Z M 113.261719 90.226562 C 113.226562 90.296875 113.195312 90.371094 113.175781 90.445312 L 105.953125 116.785156 L 105.953125 89.140625 L 123.515625 71.769531 Z M 99.597656 115.988281 L 103.96875 97.324219 L 103.96875 121.371094 Z M 115.019531 144.121094 L 84.007812 117.78125 L 94.875 109.761719 L 97.59375 116.605469 C 97.597656 116.613281 97.605469 116.621094 97.609375 116.628906 C 97.644531 116.710938 97.6875 116.792969 97.746094 116.863281 L 104.136719 124.730469 Z M 145.300781 119.179688 L 152.128906 112.015625 L 149.050781 118.476562 C 149.046875 118.480469 149.046875 118.488281 149.042969 118.492188 C 149.039062 118.5 149.035156 118.503906 149.035156 118.511719 L 143.148438 132.199219 Z M 157.929688 163.214844 L 145.484375 159.335938 L 141.871094 140.207031 L 148.742188 124.214844 L 148.085938 140.984375 C 148.082031 141.136719 148.109375 141.289062 148.171875 141.429688 Z M 226.257812 124.214844 L 233.132812 140.207031 L 229.519531 159.335938 L 217.074219 163.214844 L 226.832031 141.429688 C 226.894531 141.289062 226.921875 141.136719 226.917969 140.984375 Z M 229.703125 119.179688 L 231.855469 132.199219 L 225.96875 118.511719 C 225.964844 118.503906 225.964844 118.5 225.960938 118.492188 C 225.957031 118.488281 225.957031 118.480469 225.953125 118.476562 L 222.871094 112.015625 Z M 236.539062 170.851562 L 207.484375 176.707031 L 215.867188 165.671875 L 230.683594 161.054688 C 230.71875 161.046875 230.757812 161.03125 230.789062 161.015625 L 252.917969 151.109375 Z M 219.035156 198.65625 L 211 211.847656 L 198.949219 216.542969 L 188.710938 196.597656 L 205.222656 179.507812 L 220.613281 190.535156 Z M 220.53125 224.195312 L 208.019531 251.902344 L 200.019531 238.515625 L 199.484375 218.46875 L 211.949219 213.609375 L 214.863281 213.054688 L 213.867188 217.09375 C 213.800781 217.355469 213.847656 217.628906 213.992188 217.859375 C 214.132812 218.085938 214.363281 218.246094 214.625 218.304688 L 221.859375 219.839844 Z M 188.496094 322.84375 L 188.496094 282.625 L 193.945312 281.984375 C 194.128906 281.960938 194.304688 281.890625 194.449219 281.769531 L 203 274.894531 C 203.039062 274.863281 203.070312 274.828125 203.101562 274.792969 C 203.113281 274.785156 203.125 274.773438 203.136719 274.761719 L 203.144531 274.753906 C 203.144531 274.753906 203.144531 274.753906 203.144531 274.75 L 205.171875 272.367188 L 227.605469 292.648438 Z M 171.859375 274.753906 L 171.867188 274.761719 C 171.878906 274.777344 171.894531 274.785156 171.90625 274.800781 C 171.9375 274.835938 171.96875 274.863281 172.003906 274.894531 L 180.554688 281.769531 C 180.699219 281.890625 180.875 281.960938 181.058594 281.984375 L 186.511719 282.625 L 186.511719 322.84375 L 147.40625 292.648438 L 169.835938 272.367188 Z M 154.710938 229.554688 L 165.890625 254.300781 L 167 265.957031 L 155.511719 252.425781 Z M 160.378906 218.304688 C 160.640625 218.246094 160.871094 218.085938 161.011719 217.859375 C 161.152344 217.628906 161.199219 217.355469 161.132812 217.09375 L 160.140625 213.054688 L 163.054688 213.609375 L 175.515625 218.46875 L 174.984375 238.515625 L 166.984375 251.902344 L 154.472656 224.195312 L 153.144531 219.839844 Z M 169.777344 179.507812 L 186.292969 196.597656 L 176.054688 216.542969 L 164.003906 211.847656 L 155.96875 198.65625 L 154.390625 190.535156 Z M 186.511719 193.960938 L 172.53125 179.5 L 186.511719 181.070312 Z M 188.496094 181.070312 L 202.472656 179.496094 L 188.496094 193.957031 Z M 197.488281 218.046875 L 198.007812 237.640625 L 188.496094 236.210938 L 188.496094 200.535156 Z M 188.496094 275.113281 L 199.558594 275.113281 L 193.429688 280.046875 L 188.496094 280.625 Z M 186.511719 275.113281 L 186.511719 280.625 L 181.574219 280.046875 L 175.445312 275.113281 Z M 186.511719 236.210938 L 176.992188 237.640625 L 177.515625 218.046875 L 186.511719 200.523438 Z M 169.25 268.605469 L 167.882812 254.273438 L 176.582031 239.714844 L 186.511719 238.21875 L 186.511719 273.125 L 173.085938 273.125 Z M 205.753906 268.609375 L 201.917969 273.125 L 188.496094 273.125 L 188.496094 238.222656 L 198.421875 239.714844 L 207.121094 254.273438 Z M 144.210938 161.015625 C 144.246094 161.03125 144.285156 161.046875 144.320312 161.054688 L 159.136719 165.671875 L 167.519531 176.707031 L 138.464844 170.851562 L 122.085938 151.109375 Z M 153.460938 188.753906 L 140.507812 173.292969 L 167.464844 178.722656 Z M 155.074219 201.007812 L 161.316406 211.253906 L 150.601562 209.207031 Z M 150.507812 211.210938 L 157.992188 212.640625 L 158.960938 216.570312 L 152.558594 217.933594 Z M 167.25 364.835938 L 147.628906 295.332031 L 186.511719 325.355469 L 186.511719 372.539062 Z M 207.757812 364.832031 L 188.496094 372.535156 L 188.496094 325.355469 L 227.378906 295.332031 Z M 219.492188 252.425781 L 208 265.957031 L 209.113281 254.300781 L 220.292969 229.554688 Z M 222.441406 217.933594 L 216.042969 216.570312 L 217.007812 212.640625 L 224.492188 211.210938 Z M 224.398438 209.207031 L 213.6875 211.253906 L 219.929688 201.007812 Z M 221.542969 188.753906 L 207.539062 178.722656 L 234.496094 173.292969 Z M 270.863281 124.730469 L 277.246094 116.878906 C 277.246094 116.875 277.25 116.875 277.25 116.871094 L 277.257812 116.863281 C 277.316406 116.792969 277.359375 116.710938 277.394531 116.628906 C 277.398438 116.621094 277.40625 116.613281 277.410156 116.605469 L 280.128906 109.761719 L 290.996094 117.78125 L 259.984375 144.121094 Z M 261.828125 90.445312 C 261.808594 90.371094 261.777344 90.296875 261.742188 90.226562 L 251.484375 71.769531 L 269.046875 89.140625 L 269.046875 116.785156 Z M 271.035156 97.324219 L 275.40625 115.992188 L 271.035156 121.371094 Z M 278.464844 84.171875 C 278.460938 84.136719 278.457031 84.097656 278.449219 84.058594 L 275.488281 70.121094 L 280.5 78.550781 L 283.339844 93.691406 L 282.707031 97.882812 L 280.289062 103.972656 Z M 287.460938 79.660156 L 294.199219 102.933594 L 291.898438 115.972656 L 280.886719 107.851562 L 284.597656 98.511719 C 284.625 98.441406 284.644531 98.367188 284.65625 98.292969 Z M 298.992188 75.757812 L 294.980469 98.492188 L 287.929688 74.136719 L 279.121094 38.703125 Z M 310.617188 78.472656 C 310.136719 78.34375 309.640625 78.589844 309.449219 79.042969 L 302.355469 95.796875 L 296.65625 100.425781 L 301.011719 75.761719 C 301.050781 75.542969 301.015625 75.316406 300.910156 75.121094 L 277.113281 30.753906 C 276.875 30.3125 276.347656 30.117188 275.882812 30.296875 C 275.414062 30.476562 275.152344 30.980469 275.273438 31.464844 L 286.132812 75.140625 L 284.238281 87.714844 L 282.417969 78.011719 C 282.398438 77.894531 282.355469 77.785156 282.296875 77.683594 L 274.117188 63.929688 C 273.867188 63.511719 273.351562 63.335938 272.902344 63.511719 C 272.449219 63.6875 272.191406 64.167969 272.292969 64.644531 L 276.492188 84.414062 L 278.667969 108.050781 L 276.730469 112.929688 L 271.011719 88.5 C 271.007812 88.488281 271 88.480469 270.996094 88.46875 C 270.980469 88.402344 270.953125 88.335938 270.921875 88.277344 C 270.910156 88.253906 270.902344 88.234375 270.890625 88.21875 C 270.847656 88.148438 270.800781 88.078125 270.742188 88.019531 C 270.742188 88.019531 270.738281 88.019531 270.738281 88.019531 L 247.9375 65.464844 C 247.585938 65.117188 247.035156 65.082031 246.640625 65.382812 C 246.246094 65.679688 246.132812 66.222656 246.371094 66.65625 L 259.945312 91.085938 L 268.976562 124.039062 L 255.703125 147.6875 L 231.714844 158.425781 L 235.140625 140.28125 C 235.160156 140.175781 235.160156 140.066406 235.144531 139.953125 C 235.144531 139.949219 235.148438 139.941406 235.144531 139.933594 L 231.613281 118.554688 C 231.582031 118.359375 231.488281 118.175781 231.351562 118.03125 L 220.011719 106.132812 C 219.675781 105.78125 219.132812 105.722656 218.730469 106 C 218.328125 106.277344 218.1875 106.808594 218.398438 107.246094 L 224.070312 119.144531 L 224.921875 140.828125 L 214.40625 164.308594 L 204.570312 177.261719 L 187.5 179.183594 L 170.433594 177.261719 L 160.597656 164.308594 L 150.082031 140.828125 L 150.929688 119.144531 L 156.605469 107.246094 C 156.816406 106.808594 156.675781 106.277344 156.273438 106 C 155.871094 105.726562 155.324219 105.78125 154.992188 106.132812 L 143.648438 118.03125 C 143.511719 118.175781 143.421875 118.359375 143.390625 118.554688 L 139.855469 139.933594 C 139.855469 139.941406 139.859375 139.949219 139.855469 139.957031 C 139.84375 140.066406 139.84375 140.171875 139.859375 140.277344 L 143.289062 158.425781 L 119.296875 147.6875 L 106.027344 124.039062 L 115.058594 91.085938 L 128.628906 66.65625 C 128.871094 66.222656 128.757812 65.679688 128.363281 65.382812 C 127.96875 65.082031 127.417969 65.117188 127.066406 65.464844 L 104.261719 88.019531 C 104.203125 88.078125 104.152344 88.148438 104.113281 88.21875 C 104.101562 88.238281 104.089844 88.253906 104.082031 88.273438 C 104.050781 88.335938 104.023438 88.402344 104.003906 88.472656 C 104.003906 88.480469 103.996094 88.488281 103.992188 88.5 L 98.269531 112.929688 L 96.335938 108.050781 L 98.511719 84.414062 L 102.710938 64.644531 C 102.8125 64.167969 102.550781 63.6875 102.101562 63.511719 C 101.648438 63.335938 101.132812 63.511719 100.882812 63.929688 L 92.707031 77.683594 C 92.644531 77.785156 92.605469 77.894531 92.582031 78.011719 L 90.765625 87.714844 L 88.871094 75.140625 L 99.726562 31.464844 C 99.851562 30.980469 99.589844 30.476562 99.121094 30.296875 C 98.652344 30.117188 98.125 30.316406 97.890625 30.753906 L 74.09375 75.121094 C 73.988281 75.316406 73.953125 75.542969 73.992188 75.761719 L 78.347656 100.425781 L 72.648438 95.796875 L 65.554688 79.042969 C 65.363281 78.589844 64.867188 78.34375 64.386719 78.472656 C 63.910156 78.597656 63.59375 79.054688 63.652344 79.546875 L 66.257812 101.976562 C 66.28125 102.191406 66.375 102.394531 66.523438 102.550781 L 81.636719 118.359375 L 108.859375 156.964844 C 108.945312 157.085938 109.0625 157.191406 109.195312 157.261719 L 137.285156 172.539062 L 152.367188 190.539062 L 153.667969 197.234375 L 139.210938 190.03125 L 122.976562 172.507812 C 122.855469 172.371094 122.695312 172.277344 122.523438 172.226562 L 100.421875 165.914062 C 100.019531 165.785156 99.5625 165.933594 99.3125 166.292969 C 99.292969 166.324219 99.269531 166.359375 99.253906 166.390625 C 99.152344 166.578125 99.117188 166.789062 99.140625 166.988281 C 99.148438 167.035156 99.160156 167.085938 99.171875 167.132812 C 99.171875 167.136719 99.171875 167.136719 99.171875 167.136719 C 99.183594 167.167969 99.191406 167.195312 99.203125 167.226562 L 111.097656 198.445312 C 111.097656 198.453125 111.105469 198.457031 111.109375 198.464844 C 111.144531 198.550781 111.191406 198.632812 111.246094 198.703125 C 111.257812 198.71875 111.269531 198.730469 111.28125 198.742188 C 111.34375 198.8125 111.410156 198.878906 111.492188 198.929688 C 111.492188 198.929688 111.496094 198.933594 111.496094 198.933594 L 111.503906 198.933594 C 111.503906 198.9375 111.503906 198.9375 111.503906 198.9375 L 131.386719 211.386719 C 131.480469 211.449219 131.585938 211.488281 131.695312 211.515625 L 149.769531 215.59375 L 152.550781 224.714844 L 152.980469 236.921875 L 146.402344 256.703125 C 146.371094 256.792969 146.355469 256.886719 146.351562 256.976562 L 144.871094 292.496094 L 133.039062 321.832031 C 132.910156 322.152344 132.957031 322.519531 133.164062 322.796875 L 165.632812 366.171875 C 165.6875 366.246094 165.753906 366.3125 165.828125 366.367188 C 165.84375 366.378906 165.859375 366.386719 165.875 366.394531 C 165.933594 366.433594 165.992188 366.472656 166.058594 366.5 L 187.132812 374.925781 C 187.152344 374.933594 187.167969 374.9375 187.1875 374.941406 C 187.207031 374.949219 187.226562 374.953125 187.246094 374.960938 C 187.332031 374.984375 187.417969 374.996094 187.5 374.996094 C 187.585938 374.996094 187.671875 374.984375 187.757812 374.960938 C 187.777344 374.953125 187.796875 374.949219 187.816406 374.941406 C 187.835938 374.9375 187.851562 374.933594 187.871094 374.925781 L 208.894531 366.519531 C 208.894531 366.519531 208.898438 366.515625 208.902344 366.515625 L 208.945312 366.5 C 208.980469 366.484375 209.015625 366.457031 209.050781 366.4375 C 209.167969 366.371094 209.277344 366.292969 209.359375 366.183594 C 209.363281 366.179688 209.367188 366.175781 209.371094 366.171875 C 209.382812 366.15625 209.394531 366.140625 209.40625 366.125 L 241.839844 322.796875 C 242.046875 322.519531 242.09375 322.152344 241.964844 321.832031 L 230.132812 292.496094 L 228.652344 256.976562 C 228.648438 256.886719 228.632812 256.792969 228.601562 256.703125 L 222.023438 236.921875 L 222.449219 224.714844 L 225.234375 215.59375 L 243.308594 211.515625 C 243.417969 211.488281 243.519531 211.449219 243.617188 211.386719 L 263.496094 198.9375 C 263.5 198.9375 263.5 198.9375 263.5 198.933594 L 263.503906 198.933594 C 263.507812 198.933594 263.507812 198.929688 263.511719 198.929688 C 263.589844 198.878906 263.660156 198.8125 263.722656 198.742188 C 263.734375 198.730469 263.746094 198.71875 263.753906 198.707031 C 263.8125 198.632812 263.859375 198.550781 263.894531 198.464844 C 263.898438 198.457031 263.902344 198.453125 263.90625 198.445312 L 275.800781 167.226562 C 275.808594 167.199219 275.816406 167.175781 275.824219 167.148438 C 275.84375 167.09375 275.855469 167.039062 275.863281 166.980469 C 275.886719 166.78125 275.851562 166.574219 275.75 166.390625 C 275.734375 166.359375 275.710938 166.324219 275.691406 166.292969 C 275.4375 165.933594 274.988281 165.789062 274.582031 165.914062 L 252.480469 172.226562 C 252.304688 172.277344 252.148438 172.371094 252.023438 172.507812 L 235.792969 190.03125 L 221.335938 197.234375 L 222.636719 190.539062 L 237.71875 172.539062 L 265.808594 157.261719 C 265.941406 157.191406 266.058594 157.085938 266.144531 156.964844 L 293.367188 118.359375 L 308.480469 102.550781 C 308.628906 102.394531 308.722656 102.191406 308.746094 101.976562 L 311.351562 79.546875 C 311.40625 79.054688 311.09375 78.597656 310.617188 78.472656 " fill-opacity="1" fill-rule="nonzero"/></g></svg>