<svg xmlns="http://www.w3.org/2000/svg" xmlns:xlink="http://www.w3.org/1999/xlink" width="500" zoomAndPan="magnify" viewBox="0 0 375 374.999991" height="500" preserveAspectRatio="xMidYMid meet" version="1.0"><defs><g/><clipPath id="ead03cbf2c"><path d="M 85.796875 9.257812 L 289.046875 9.257812 L 289.046875 292.007812 L 85.796875 292.007812 Z M 85.796875 9.257812 " clip-rule="nonzero"/></clipPath></defs><path fill="#000000" d="M 176.339844 195.347656 L 178.203125 192.585938 L 180.097656 194.207031 L 180.441406 199.585938 Z M 181.398438 202.558594 C 181.511719 202.558594 181.621094 202.535156 181.726562 202.488281 C 182.039062 202.351562 182.234375 202.03125 182.210938 201.691406 L 181.699219 193.757812 C 181.6875 193.539062 181.585938 193.335938 181.417969 193.191406 L 178.570312 190.753906 C 178.394531 190.601562 178.160156 190.53125 177.929688 190.5625 C 177.699219 190.59375 177.496094 190.722656 177.363281 190.914062 L 174.617188 194.984375 C 174.402344 195.304688 174.441406 195.730469 174.710938 196.007812 L 180.8125 202.3125 C 180.96875 202.472656 181.183594 202.558594 181.398438 202.558594 " fill-opacity="1" fill-rule="nonzero"/><path fill="#000000" d="M 198.664062 195.347656 L 194.5625 199.585938 L 194.910156 194.207031 L 196.800781 192.585938 Z M 196.433594 190.753906 L 193.585938 193.191406 C 193.417969 193.335938 193.320312 193.539062 193.304688 193.757812 L 192.792969 201.691406 C 192.769531 202.03125 192.964844 202.351562 193.277344 202.488281 C 193.382812 202.535156 193.496094 202.558594 193.605469 202.558594 C 193.820312 202.558594 194.035156 202.472656 194.191406 202.3125 L 200.296875 196.007812 C 200.566406 195.730469 200.601562 195.304688 200.386719 194.984375 L 197.640625 190.914062 C 197.511719 190.722656 197.304688 190.59375 197.074219 190.5625 C 196.839844 190.53125 196.609375 190.601562 196.433594 190.753906 " fill-opacity="1" fill-rule="nonzero"/><g clip-path="url(#ead03cbf2c)"><path fill="#000000" d="M 285.410156 67.75 L 275.015625 78.625 L 276.644531 69.390625 L 282.941406 64.277344 C 283.042969 64.191406 283.125 64.082031 283.175781 63.960938 L 286.859375 55.261719 Z M 250.816406 112.238281 L 231.519531 122.730469 L 244.632812 106.929688 L 269.378906 85.914062 Z M 219.035156 155.097656 L 215.273438 148.199219 L 225.660156 143.023438 Z M 228.238281 141.710938 L 246.082031 130.59375 L 248.550781 146.675781 L 232.804688 156.539062 L 219.015625 159.648438 L 219.789062 157.113281 Z M 241.492188 127.363281 L 253.84375 123.835938 L 246.273438 128.550781 C 246.273438 128.550781 246.273438 128.554688 246.269531 128.554688 L 232.359375 137.222656 Z M 249.777344 143.90625 L 247.589844 129.652344 L 257.578125 123.429688 Z M 219.648438 195.589844 L 220.78125 222.8125 L 203.058594 206.789062 L 215.179688 192.507812 C 215.296875 192.371094 215.367188 192.195312 215.371094 192.011719 L 215.667969 183.625 Z M 206.78125 280.511719 L 221.816406 227.25 L 230.511719 248.808594 Z M 153.191406 227.246094 L 168.234375 280.523438 L 144.492188 248.808594 Z M 159.335938 183.621094 L 159.632812 192.011719 C 159.636719 192.195312 159.707031 192.371094 159.824219 192.507812 L 171.949219 206.792969 L 154.222656 222.820312 L 155.359375 195.589844 Z M 142.203125 156.539062 L 126.453125 146.675781 L 128.921875 130.59375 L 146.765625 141.710938 L 155.21875 157.113281 L 155.992188 159.648438 Z M 127.417969 129.652344 L 125.226562 143.90625 L 117.425781 123.429688 Z M 133.511719 127.363281 L 142.644531 137.222656 L 128.734375 128.554688 C 128.734375 128.550781 128.734375 128.550781 128.730469 128.550781 L 121.160156 123.835938 Z M 159.730469 148.199219 L 155.96875 155.097656 L 149.347656 143.023438 Z M 105.628906 85.914062 L 130.375 106.929688 L 143.484375 122.730469 L 124.191406 112.238281 Z M 88.144531 55.261719 L 91.828125 63.960938 C 91.882812 64.082031 91.960938 64.191406 92.0625 64.277344 L 98.359375 69.390625 L 99.988281 78.625 L 89.59375 67.75 Z M 112.320312 16.285156 L 105.09375 45.351562 L 99.304688 65.351562 L 96.011719 46.695312 Z M 107.777344 65.1875 C 107.785156 65.25 107.800781 65.308594 107.824219 65.367188 L 110.871094 73.03125 L 101.835938 79.695312 L 99.945312 68.996094 L 105.476562 49.898438 Z M 111.1875 48.984375 L 115.300781 42.066406 L 112.871094 53.507812 C 112.863281 53.539062 112.859375 53.570312 112.855469 53.601562 L 111.359375 69.847656 L 109.375 64.851562 L 108.855469 61.410156 Z M 126.582031 58.566406 C 126.550781 58.625 126.523438 58.6875 126.507812 58.75 L 120.582031 80.363281 L 120.582031 57.675781 L 134.996094 43.421875 Z M 115.367188 79.710938 L 118.953125 64.394531 L 118.953125 84.125 Z M 128.023438 102.792969 L 102.574219 81.179688 L 111.492188 74.597656 L 113.722656 80.214844 C 113.726562 80.222656 113.734375 80.226562 113.734375 80.234375 C 113.765625 80.300781 113.800781 80.367188 113.847656 80.425781 L 119.09375 86.882812 Z M 152.871094 82.328125 L 158.476562 76.449219 L 155.949219 81.75 C 155.945312 81.753906 155.945312 81.761719 155.941406 81.765625 C 155.941406 81.769531 155.9375 81.773438 155.933594 81.777344 L 151.105469 93.011719 Z M 163.234375 118.460938 L 153.023438 115.28125 L 150.054688 99.582031 L 155.695312 86.460938 L 155.15625 100.21875 C 155.152344 100.347656 155.175781 100.472656 155.226562 100.585938 Z M 219.308594 86.460938 L 224.949219 99.582031 L 221.984375 115.28125 L 211.769531 118.460938 L 219.777344 100.585938 C 219.828125 100.472656 219.851562 100.347656 219.847656 100.21875 Z M 222.132812 82.328125 L 223.898438 93.011719 L 219.070312 81.777344 C 219.066406 81.773438 219.066406 81.769531 219.0625 81.761719 C 219.058594 81.757812 219.058594 81.753906 219.058594 81.75 L 216.527344 76.449219 Z M 227.742188 124.730469 L 203.902344 129.535156 L 210.777344 120.480469 L 222.9375 116.691406 C 222.96875 116.683594 223 116.671875 223.027344 116.65625 L 241.1875 108.53125 Z M 213.378906 147.546875 L 206.785156 158.371094 L 196.894531 162.226562 L 188.496094 145.859375 L 202.046875 131.832031 L 214.675781 140.882812 Z M 214.609375 168.507812 L 204.339844 191.242188 L 197.773438 180.257812 L 197.335938 163.804688 L 207.566406 159.816406 L 209.957031 159.363281 L 209.140625 162.675781 C 209.085938 162.890625 209.121094 163.117188 209.242188 163.304688 C 209.355469 163.492188 209.546875 163.625 209.761719 163.667969 L 215.699219 164.929688 Z M 188.320312 249.457031 L 188.320312 216.453125 L 192.789062 215.925781 C 192.941406 215.910156 193.085938 215.847656 193.207031 215.753906 L 200.222656 210.109375 C 200.253906 210.082031 200.277344 210.054688 200.304688 210.027344 C 200.3125 210.019531 200.324219 210.011719 200.332031 210 L 200.339844 209.992188 L 202 208.035156 L 220.414062 224.679688 Z M 174.667969 209.992188 L 174.671875 210 C 174.683594 210.011719 174.695312 210.019531 174.707031 210.03125 C 174.730469 210.058594 174.753906 210.085938 174.785156 210.109375 L 181.800781 215.753906 C 181.921875 215.847656 182.0625 215.910156 182.214844 215.925781 L 186.691406 216.453125 L 186.691406 249.457031 L 154.597656 224.679688 L 173.003906 208.035156 Z M 160.59375 172.902344 L 169.769531 193.210938 L 170.679688 202.777344 L 161.253906 191.667969 Z M 165.246094 163.667969 C 165.460938 163.625 165.648438 163.492188 165.765625 163.304688 C 165.882812 163.117188 165.917969 162.890625 165.867188 162.675781 L 165.050781 159.363281 L 167.441406 159.816406 L 177.667969 163.804688 L 177.230469 180.257812 L 170.664062 191.242188 L 160.398438 168.507812 L 159.308594 164.929688 Z M 172.960938 131.832031 L 186.511719 145.859375 L 178.109375 162.226562 L 168.21875 158.375 L 161.625 147.546875 L 160.332031 140.882812 Z M 186.691406 143.695312 L 175.21875 131.824219 L 186.691406 133.117188 Z M 188.320312 133.117188 L 199.785156 131.824219 L 188.320312 143.691406 Z M 195.695312 163.460938 L 196.125 179.539062 L 188.320312 178.363281 L 188.320312 149.089844 Z M 188.320312 210.289062 L 197.398438 210.289062 L 192.367188 214.335938 L 188.320312 214.8125 Z M 186.691406 210.289062 L 186.691406 214.8125 L 182.640625 214.335938 L 177.609375 210.289062 Z M 186.691406 178.363281 L 178.878906 179.539062 L 179.308594 163.460938 L 186.691406 149.078125 Z M 172.523438 204.949219 L 171.402344 193.1875 L 178.542969 181.238281 L 186.691406 180.011719 L 186.691406 208.65625 L 175.671875 208.65625 Z M 202.480469 204.949219 L 199.332031 208.65625 L 188.320312 208.65625 L 188.320312 180.015625 L 196.460938 181.238281 L 203.601562 193.1875 Z M 151.976562 116.65625 C 152.007812 116.671875 152.039062 116.683594 152.070312 116.691406 L 164.226562 120.480469 L 171.105469 129.535156 L 147.265625 124.730469 L 133.820312 108.53125 Z M 159.570312 139.421875 L 148.9375 126.730469 L 171.058594 131.191406 Z M 160.890625 149.476562 L 166.015625 157.886719 L 157.222656 156.203125 Z M 157.144531 157.851562 L 163.289062 159.023438 L 164.082031 162.25 L 158.828125 163.367188 Z M 170.882812 283.917969 L 154.785156 226.882812 L 186.691406 251.519531 L 186.691406 290.238281 Z M 204.125 283.914062 L 188.320312 290.234375 L 188.320312 251.519531 L 220.226562 226.882812 Z M 213.753906 191.667969 L 204.324219 202.777344 L 205.238281 193.210938 L 214.410156 172.902344 Z M 216.175781 163.367188 L 210.921875 162.25 L 211.71875 159.023438 L 217.859375 157.851562 Z M 217.78125 156.203125 L 208.992188 157.886719 L 214.113281 149.476562 Z M 215.4375 139.421875 L 203.945312 131.191406 L 226.066406 126.730469 Z M 255.910156 86.882812 L 261.148438 80.441406 C 261.148438 80.4375 261.148438 80.4375 261.152344 80.433594 L 261.15625 80.425781 C 261.207031 80.367188 261.242188 80.300781 261.269531 80.234375 C 261.273438 80.226562 261.28125 80.222656 261.28125 80.214844 L 263.515625 74.597656 L 272.433594 81.179688 L 246.984375 102.792969 Z M 248.496094 58.75 C 248.480469 58.6875 248.453125 58.625 248.425781 58.566406 L 240.007812 43.421875 L 254.421875 57.675781 L 254.421875 80.363281 Z M 256.050781 64.394531 L 259.640625 79.710938 L 256.050781 84.125 Z M 262.148438 53.601562 C 262.144531 53.570312 262.140625 53.539062 262.136719 53.507812 L 259.707031 42.066406 L 263.816406 48.984375 L 266.148438 61.410156 L 265.628906 64.851562 L 263.644531 69.847656 Z M 269.53125 49.898438 L 275.058594 68.996094 L 273.171875 79.695312 L 264.136719 73.03125 L 267.179688 65.367188 C 267.203125 65.308594 267.21875 65.25 267.230469 65.1875 Z M 278.996094 46.695312 L 275.703125 65.351562 L 269.914062 45.363281 L 262.6875 16.285156 Z M 288.53125 48.921875 C 288.136719 48.820312 287.730469 49.019531 287.574219 49.390625 L 281.753906 63.136719 L 277.078125 66.9375 L 280.648438 46.699219 C 280.683594 46.519531 280.652344 46.335938 280.566406 46.171875 L 261.039062 9.765625 C 260.84375 9.402344 260.410156 9.242188 260.027344 9.390625 C 259.644531 9.539062 259.429688 9.949219 259.53125 10.347656 L 268.4375 46.191406 L 266.886719 56.503906 L 265.394531 48.542969 C 265.375 48.449219 265.339844 48.359375 265.292969 48.277344 L 258.582031 36.988281 C 258.375 36.644531 257.953125 36.5 257.582031 36.644531 C 257.210938 36.792969 257 37.183594 257.082031 37.574219 L 260.53125 53.800781 L 262.316406 73.195312 L 260.726562 77.199219 L 256.03125 57.152344 C 256.027344 57.140625 256.023438 57.132812 256.019531 57.125 C 256.003906 57.070312 255.984375 57.015625 255.960938 56.96875 C 255.949219 56.949219 255.941406 56.933594 255.933594 56.917969 C 255.898438 56.863281 255.859375 56.804688 255.808594 56.757812 L 237.097656 38.25 C 236.808594 37.964844 236.355469 37.933594 236.03125 38.179688 C 235.710938 38.421875 235.617188 38.871094 235.8125 39.226562 L 246.953125 59.273438 L 254.359375 86.316406 L 243.46875 105.71875 L 223.785156 114.53125 L 226.59375 99.644531 C 226.613281 99.558594 226.613281 99.464844 226.601562 99.375 C 226.597656 99.371094 226.601562 99.363281 226.601562 99.359375 L 223.703125 81.816406 C 223.675781 81.652344 223.601562 81.503906 223.488281 81.386719 L 214.183594 71.621094 C 213.90625 71.332031 213.460938 71.285156 213.128906 71.511719 C 212.800781 71.742188 212.683594 72.175781 212.855469 72.535156 L 217.511719 82.300781 L 218.210938 100.09375 L 209.582031 119.359375 L 201.511719 129.988281 L 187.503906 131.566406 L 173.496094 129.988281 L 165.425781 119.359375 L 156.792969 100.09375 L 157.492188 82.300781 L 162.148438 72.535156 C 162.320312 72.175781 162.207031 71.742188 161.875 71.511719 C 161.546875 71.285156 161.097656 71.332031 160.824219 71.621094 L 151.519531 81.386719 C 151.40625 81.503906 151.328125 81.652344 151.304688 81.816406 L 148.40625 99.359375 C 148.402344 99.363281 148.40625 99.371094 148.40625 99.378906 C 148.394531 99.464844 148.394531 99.554688 148.40625 99.640625 L 151.222656 114.53125 L 131.535156 105.71875 L 120.644531 86.316406 L 128.054688 59.273438 L 139.191406 39.226562 C 139.390625 38.871094 139.296875 38.421875 138.972656 38.179688 C 138.652344 37.933594 138.195312 37.964844 137.90625 38.25 L 119.195312 56.757812 C 119.148438 56.804688 119.105469 56.863281 119.070312 56.921875 C 119.0625 56.9375 119.054688 56.949219 119.046875 56.964844 C 119.019531 57.015625 119 57.070312 118.984375 57.128906 C 118.984375 57.136719 118.976562 57.144531 118.976562 57.152344 L 114.277344 77.199219 L 112.691406 73.195312 L 114.476562 53.800781 L 117.921875 37.574219 C 118.003906 37.183594 117.792969 36.792969 117.421875 36.644531 C 117.050781 36.5 116.628906 36.644531 116.421875 36.988281 L 109.710938 48.277344 C 109.664062 48.359375 109.628906 48.449219 109.609375 48.542969 L 108.117188 56.503906 L 106.566406 46.191406 L 115.476562 10.347656 C 115.574219 9.949219 115.359375 9.539062 114.976562 9.390625 C 114.59375 9.242188 114.160156 9.402344 113.964844 9.765625 L 94.441406 46.171875 C 94.351562 46.335938 94.324219 46.519531 94.355469 46.699219 L 97.929688 66.9375 L 93.25 63.136719 L 87.433594 49.390625 C 87.273438 49.019531 86.867188 48.820312 86.472656 48.921875 C 86.082031 49.027344 85.824219 49.402344 85.871094 49.804688 L 88.007812 68.210938 C 88.027344 68.386719 88.105469 68.550781 88.226562 68.679688 L 100.628906 81.65625 L 122.96875 113.332031 C 123.039062 113.433594 123.132812 113.519531 123.242188 113.578125 L 146.292969 126.117188 L 158.671875 140.886719 L 159.738281 146.378906 L 147.875 140.46875 L 134.554688 126.089844 C 134.453125 125.976562 134.324219 125.898438 134.179688 125.859375 L 116.042969 120.675781 C 115.714844 120.574219 115.339844 120.695312 115.132812 120.988281 C 115.117188 121.015625 115.101562 121.042969 115.085938 121.070312 C 115 121.222656 114.972656 121.394531 114.992188 121.558594 C 115 121.597656 115.007812 121.640625 115.019531 121.679688 C 115.027344 121.707031 115.035156 121.730469 115.042969 121.753906 L 124.804688 147.375 C 124.804688 147.378906 124.8125 147.382812 124.8125 147.390625 C 124.84375 147.460938 124.878906 147.527344 124.925781 147.585938 C 124.9375 147.597656 124.945312 147.609375 124.957031 147.617188 C 125.007812 147.675781 125.0625 147.726562 125.128906 147.769531 C 125.128906 147.773438 125.132812 147.773438 125.132812 147.773438 L 125.136719 147.777344 L 141.457031 157.996094 C 141.53125 158.042969 141.617188 158.078125 141.707031 158.097656 L 156.539062 161.445312 L 158.820312 168.929688 L 159.171875 178.949219 L 153.777344 195.179688 C 153.75 195.253906 153.738281 195.332031 153.734375 195.40625 L 152.519531 224.554688 L 142.808594 248.625 C 142.703125 248.890625 142.742188 249.191406 142.914062 249.417969 L 169.558594 285.011719 C 169.601562 285.074219 169.65625 285.128906 169.71875 285.175781 C 169.730469 285.183594 169.742188 285.1875 169.757812 285.195312 C 169.804688 285.226562 169.851562 285.257812 169.90625 285.28125 L 187.199219 292.195312 C 187.214844 292.203125 187.230469 292.203125 187.246094 292.207031 C 187.261719 292.214844 187.277344 292.21875 187.292969 292.222656 C 187.363281 292.242188 187.433594 292.253906 187.503906 292.253906 C 187.574219 292.253906 187.644531 292.242188 187.710938 292.222656 C 187.730469 292.21875 187.746094 292.214844 187.761719 292.207031 C 187.777344 292.203125 187.792969 292.203125 187.804688 292.195312 L 205.058594 285.296875 C 205.058594 285.296875 205.0625 285.292969 205.066406 285.292969 L 205.097656 285.28125 C 205.128906 285.269531 205.15625 285.246094 205.1875 285.230469 C 205.28125 285.175781 205.371094 285.109375 205.441406 285.019531 C 205.441406 285.019531 205.445312 285.015625 205.449219 285.011719 C 205.457031 285 205.46875 284.988281 205.476562 284.972656 L 232.09375 249.417969 C 232.265625 249.191406 232.304688 248.890625 232.195312 248.625 L 222.484375 224.554688 L 221.269531 195.40625 C 221.269531 195.332031 221.253906 195.253906 221.230469 195.179688 L 215.832031 178.945312 L 216.183594 168.929688 L 218.464844 161.445312 L 233.296875 158.097656 C 233.386719 158.078125 233.472656 158.042969 233.550781 157.996094 L 249.867188 147.777344 L 249.871094 147.773438 C 249.875 147.773438 249.875 147.773438 249.875 147.773438 C 249.941406 147.726562 250 147.675781 250.050781 147.617188 C 250.058594 147.609375 250.070312 147.597656 250.078125 147.589844 C 250.125 147.527344 250.164062 147.460938 250.191406 147.390625 C 250.195312 147.382812 250.199219 147.378906 250.203125 147.375 L 259.960938 121.753906 C 259.96875 121.734375 259.976562 121.710938 259.980469 121.691406 C 259.996094 121.648438 260.007812 121.601562 260.011719 121.554688 C 260.03125 121.390625 260.003906 121.222656 259.917969 121.070312 C 259.90625 121.042969 259.890625 121.015625 259.871094 120.988281 C 259.664062 120.695312 259.292969 120.574219 258.960938 120.675781 L 240.824219 125.859375 C 240.683594 125.898438 240.554688 125.976562 240.453125 126.089844 L 227.128906 140.46875 L 215.265625 146.378906 L 216.335938 140.886719 L 228.710938 126.117188 L 251.761719 113.578125 C 251.871094 113.519531 251.964844 113.433594 252.039062 113.332031 L 274.375 81.65625 L 286.777344 68.679688 C 286.902344 68.550781 286.976562 68.386719 287 68.210938 L 289.136719 49.804688 C 289.179688 49.402344 288.925781 49.027344 288.53125 48.921875 " fill-opacity="1" fill-rule="nonzero"/></g><g fill="#000000" fill-opacity="1"><g transform="translate(126.45333, 343.046168)"><g><path d="M 7.984375 -7.328125 C 7.984375 -6.285156 7.625 -5.484375 6.90625 -4.921875 C 6.195312 -4.359375 5.175781 -4.078125 3.84375 -4.078125 L 2.625 -4.078125 L 2.625 0 L 1.421875 0 L 1.421875 -10.34375 L 4.109375 -10.34375 C 6.691406 -10.34375 7.984375 -9.335938 7.984375 -7.328125 Z M 2.625 -5.109375 L 3.703125 -5.109375 C 4.773438 -5.109375 5.546875 -5.28125 6.015625 -5.625 C 6.492188 -5.96875 6.734375 -6.519531 6.734375 -7.28125 C 6.734375 -7.96875 6.507812 -8.476562 6.0625 -8.8125 C 5.613281 -9.144531 4.914062 -9.3125 3.96875 -9.3125 L 2.625 -9.3125 Z M 2.625 -5.109375 "/></g></g></g><g fill="#000000" fill-opacity="1"><g transform="translate(138.749889, 343.046168)"><g><path d="M 2.625 -4.3125 L 2.625 0 L 1.421875 0 L 1.421875 -10.34375 L 4.265625 -10.34375 C 5.535156 -10.34375 6.472656 -10.097656 7.078125 -9.609375 C 7.679688 -9.128906 7.984375 -8.398438 7.984375 -7.421875 C 7.984375 -6.054688 7.289062 -5.132812 5.90625 -4.65625 L 8.71875 0 L 7.296875 0 L 4.78125 -4.3125 Z M 2.625 -5.34375 L 4.28125 -5.34375 C 5.125 -5.34375 5.742188 -5.507812 6.140625 -5.84375 C 6.535156 -6.175781 6.734375 -6.679688 6.734375 -7.359375 C 6.734375 -8.046875 6.53125 -8.539062 6.125 -8.84375 C 5.726562 -9.144531 5.082031 -9.296875 4.1875 -9.296875 L 2.625 -9.296875 Z M 2.625 -5.34375 "/></g></g></g><g fill="#000000" fill-opacity="1"><g transform="translate(151.280056, 343.046168)"><g><path d="M 10.40625 -5.1875 C 10.40625 -3.53125 9.984375 -2.226562 9.140625 -1.28125 C 8.304688 -0.332031 7.144531 0.140625 5.65625 0.140625 C 4.132812 0.140625 2.957031 -0.320312 2.125 -1.25 C 1.300781 -2.1875 0.890625 -3.503906 0.890625 -5.203125 C 0.890625 -6.890625 1.300781 -8.195312 2.125 -9.125 C 2.957031 -10.050781 4.140625 -10.515625 5.671875 -10.515625 C 7.160156 -10.515625 8.320312 -10.039062 9.15625 -9.09375 C 9.988281 -8.15625 10.40625 -6.851562 10.40625 -5.1875 Z M 2.15625 -5.1875 C 2.15625 -3.789062 2.453125 -2.726562 3.046875 -2 C 3.648438 -1.269531 4.519531 -0.90625 5.65625 -0.90625 C 6.800781 -0.90625 7.664062 -1.265625 8.25 -1.984375 C 8.84375 -2.710938 9.140625 -3.78125 9.140625 -5.1875 C 9.140625 -6.582031 8.847656 -7.640625 8.265625 -8.359375 C 7.679688 -9.078125 6.816406 -9.4375 5.671875 -9.4375 C 4.523438 -9.4375 3.648438 -9.070312 3.046875 -8.34375 C 2.453125 -7.625 2.15625 -6.570312 2.15625 -5.1875 Z M 2.15625 -5.1875 "/></g></g></g><g fill="#000000" fill-opacity="1"><g transform="translate(166.139271, 343.046168)"><g/></g></g><g fill="#000000" fill-opacity="1"><g transform="translate(173.473335, 343.046168)"><g><path d="M 9.28125 0 L 8.078125 0 L 8.078125 -4.875 L 2.625 -4.875 L 2.625 0 L 1.421875 0 L 1.421875 -10.34375 L 2.625 -10.34375 L 2.625 -5.953125 L 8.078125 -5.953125 L 8.078125 -10.34375 L 9.28125 -10.34375 Z M 9.28125 0 "/></g></g></g><g fill="#000000" fill-opacity="1"><g transform="translate(187.737899, 343.046168)"><g><path d="M 9.234375 -10.34375 L 9.234375 -3.65625 C 9.234375 -2.476562 8.875 -1.550781 8.15625 -0.875 C 7.445312 -0.195312 6.472656 0.140625 5.234375 0.140625 C 3.984375 0.140625 3.015625 -0.195312 2.328125 -0.875 C 1.648438 -1.550781 1.3125 -2.488281 1.3125 -3.6875 L 1.3125 -10.34375 L 2.515625 -10.34375 L 2.515625 -3.59375 C 2.515625 -2.726562 2.75 -2.0625 3.21875 -1.59375 C 3.695312 -1.132812 4.394531 -0.90625 5.3125 -0.90625 C 6.1875 -0.90625 6.859375 -1.140625 7.328125 -1.609375 C 7.796875 -2.078125 8.03125 -2.742188 8.03125 -3.609375 L 8.03125 -10.34375 Z M 9.234375 -10.34375 "/></g></g></g><g fill="#000000" fill-opacity="1"><g transform="translate(201.860884, 343.046168)"><g><path d="M 9.515625 0 L 8.140625 0 L 2.484375 -8.6875 L 2.421875 -8.6875 C 2.492188 -7.664062 2.53125 -6.734375 2.53125 -5.890625 L 2.53125 0 L 1.421875 0 L 1.421875 -10.34375 L 2.78125 -10.34375 L 8.421875 -1.703125 L 8.484375 -1.703125 C 8.472656 -1.828125 8.453125 -2.234375 8.421875 -2.921875 C 8.390625 -3.617188 8.378906 -4.113281 8.390625 -4.40625 L 8.390625 -10.34375 L 9.515625 -10.34375 Z M 9.515625 0 "/></g></g></g><g fill="#000000" fill-opacity="1"><g transform="translate(216.359061, 343.046168)"><g><path d="M 4.609375 0 L 3.40625 0 L 3.40625 -9.28125 L 0.125 -9.28125 L 0.125 -10.34375 L 7.890625 -10.34375 L 7.890625 -9.28125 L 4.609375 -9.28125 Z M 4.609375 0 "/></g></g></g><g fill="#000000" fill-opacity="1"><g transform="translate(227.947707, 343.046168)"><g><path d="M 7.1875 0 L 1.421875 0 L 1.421875 -10.34375 L 7.1875 -10.34375 L 7.1875 -9.28125 L 2.625 -9.28125 L 2.625 -5.953125 L 6.921875 -5.953125 L 6.921875 -4.890625 L 2.625 -4.890625 L 2.625 -1.078125 L 7.1875 -1.078125 Z M 7.1875 0 "/></g></g></g><g fill="#000000" fill-opacity="1"><g transform="translate(239.578829, 343.046168)"><g><path d="M 2.625 -4.3125 L 2.625 0 L 1.421875 0 L 1.421875 -10.34375 L 4.265625 -10.34375 C 5.535156 -10.34375 6.472656 -10.097656 7.078125 -9.609375 C 7.679688 -9.128906 7.984375 -8.398438 7.984375 -7.421875 C 7.984375 -6.054688 7.289062 -5.132812 5.90625 -4.65625 L 8.71875 0 L 7.296875 0 L 4.78125 -4.3125 Z M 2.625 -5.34375 L 4.28125 -5.34375 C 5.125 -5.34375 5.742188 -5.507812 6.140625 -5.84375 C 6.535156 -6.175781 6.734375 -6.679688 6.734375 -7.359375 C 6.734375 -8.046875 6.53125 -8.539062 6.125 -8.84375 C 5.726562 -9.144531 5.082031 -9.296875 4.1875 -9.296875 L 2.625 -9.296875 Z M 2.625 -5.34375 "/></g></g></g><g fill="#000000" fill-opacity="1"><g transform="translate(125.435071, 322.551204)"><g><path d="M 11.03125 0 L 4.578125 -16.84375 L 4.46875 -16.84375 C 4.59375 -15.507812 4.65625 -13.925781 4.65625 -12.09375 L 4.65625 0 L 2.609375 0 L 2.609375 -19 L 5.9375 -19 L 11.953125 -3.328125 L 12.0625 -3.328125 L 18.140625 -19 L 21.4375 -19 L 21.4375 0 L 19.234375 0 L 19.234375 -12.25 C 19.234375 -13.65625 19.289062 -15.179688 19.40625 -16.828125 L 19.3125 -16.828125 L 12.8125 0 Z M 11.03125 0 "/></g></g></g><g fill="#000000" fill-opacity="1"><g transform="translate(152.378381, 322.551204)"><g><path d="M 13.203125 0 L 2.609375 0 L 2.609375 -19 L 13.203125 -19 L 13.203125 -17.046875 L 4.828125 -17.046875 L 4.828125 -10.921875 L 12.703125 -10.921875 L 12.703125 -8.96875 L 4.828125 -8.96875 L 4.828125 -1.96875 L 13.203125 -1.96875 Z M 13.203125 0 "/></g></g></g><g fill="#000000" fill-opacity="1"><g transform="translate(170.090398, 322.551204)"><g><path d="M 4.828125 -7.90625 L 4.828125 0 L 2.609375 0 L 2.609375 -19 L 7.828125 -19 C 10.160156 -19 11.882812 -18.550781 13 -17.65625 C 14.113281 -16.769531 14.671875 -15.429688 14.671875 -13.640625 C 14.671875 -11.128906 13.394531 -9.429688 10.84375 -8.546875 L 16 0 L 13.390625 0 L 8.78125 -7.90625 Z M 4.828125 -9.796875 L 7.859375 -9.796875 C 9.410156 -9.796875 10.550781 -10.101562 11.28125 -10.71875 C 12.007812 -11.34375 12.375 -12.273438 12.375 -13.515625 C 12.375 -14.773438 12.003906 -15.679688 11.265625 -16.234375 C 10.523438 -16.785156 9.335938 -17.0625 7.703125 -17.0625 L 4.828125 -17.0625 Z M 4.828125 -9.796875 "/></g></g></g><g fill="#000000" fill-opacity="1"><g transform="translate(189.453643, 322.551204)"><g><path d="M 10.96875 -9.953125 L 17.4375 -9.953125 L 17.4375 -0.71875 C 16.425781 -0.394531 15.398438 -0.148438 14.359375 0.015625 C 13.328125 0.179688 12.125 0.265625 10.75 0.265625 C 7.875 0.265625 5.632812 -0.585938 4.03125 -2.296875 C 2.425781 -4.015625 1.625 -6.414062 1.625 -9.5 C 1.625 -11.476562 2.019531 -13.207031 2.8125 -14.6875 C 3.601562 -16.175781 4.742188 -17.3125 6.234375 -18.09375 C 7.722656 -18.882812 9.472656 -19.28125 11.484375 -19.28125 C 13.503906 -19.28125 15.390625 -18.90625 17.140625 -18.15625 L 16.296875 -16.21875 C 14.578125 -16.9375 12.925781 -17.296875 11.34375 -17.296875 C 9.019531 -17.296875 7.207031 -16.609375 5.90625 -15.234375 C 4.613281 -13.859375 3.96875 -11.945312 3.96875 -9.5 C 3.96875 -6.9375 4.59375 -4.988281 5.84375 -3.65625 C 7.09375 -2.332031 8.929688 -1.671875 11.359375 -1.671875 C 12.679688 -1.671875 13.96875 -1.820312 15.21875 -2.125 L 15.21875 -7.984375 L 10.96875 -7.984375 Z M 10.96875 -9.953125 "/></g></g></g><g fill="#000000" fill-opacity="1"><g transform="translate(211.742297, 322.551204)"><g><path d="M 13.203125 0 L 2.609375 0 L 2.609375 -19 L 13.203125 -19 L 13.203125 -17.046875 L 4.828125 -17.046875 L 4.828125 -10.921875 L 12.703125 -10.921875 L 12.703125 -8.96875 L 4.828125 -8.96875 L 4.828125 -1.96875 L 13.203125 -1.96875 Z M 13.203125 0 "/></g></g></g><g fill="#000000" fill-opacity="1"><g transform="translate(229.454311, 322.551204)"><g><path d="M 17.453125 0 L 14.9375 0 L 4.546875 -15.953125 L 4.453125 -15.953125 C 4.585938 -14.078125 4.65625 -12.359375 4.65625 -10.796875 L 4.65625 0 L 2.609375 0 L 2.609375 -19 L 5.109375 -19 L 15.46875 -3.125 L 15.578125 -3.125 C 15.554688 -3.351562 15.515625 -4.101562 15.453125 -5.375 C 15.390625 -6.644531 15.367188 -7.550781 15.390625 -8.09375 L 15.390625 -19 L 17.453125 -19 Z M 17.453125 0 "/></g></g></g></svg>