<?xml version="1.0" standalone="no"?>
<!DOCTYPE svg PUBLIC "-//W3C//DTD SVG 20010904//EN"
 "http://www.w3.org/TR/2001/REC-SVG-20010904/DTD/svg10.dtd">
<svg version="1.0" xmlns="http://www.w3.org/2000/svg"
 width="700.000000pt" height="700.000000pt" viewBox="0 0 700.000000 700.000000"
 preserveAspectRatio="xMidYMid meet">
<metadata>
Created by potrace 1.14, written by Peter Selinger 2001-2017
</metadata>
<g transform="translate(0.000000,700.000000) scale(0.100000,-0.100000)"
fill="#000000" stroke="none">
<path d="M0 3500 l0 -3500 1742 0 c958 0 1739 2 1737 4 -2 2 -90 38 -195 80
l-190 77 -300 400 c-164 221 -302 407 -306 414 -4 7 42 134 104 286 l111 274
15 335 14 334 62 191 61 190 -6 125 c-5 92 -13 144 -30 195 l-24 70 -170 39
-170 39 -189 118 -190 119 -113 296 c-62 164 -113 301 -113 306 0 15 33 8 237
-49 l204 -58 154 -167 155 -166 132 -65 c73 -36 134 -64 135 -63 1 0 -4 27
-11 60 -11 55 -21 70 -151 226 l-140 168 -265 144 -265 144 -255 361 c-224
317 -273 380 -399 513 l-144 151 -24 210 c-35 301 -25 309 80 62 60 -143 67
-155 115 -194 29 -22 52 -38 52 -35 0 4 -18 108 -40 232 l-40 225 222 416
c123 228 229 418 236 420 7 3 16 3 19 0 3 -4 -40 -192 -96 -420 l-102 -413 16
-104 c9 -57 17 -106 19 -107 2 -2 11 34 19 79 14 73 26 101 93 216 57 95 84
132 97 132 15 0 18 -5 14 -22 -42 -167 -80 -392 -98 -579 -20 -214 -20 -223
-3 -268 l18 -46 17 70 c9 39 34 141 54 229 l37 158 215 212 c118 116 221 212
229 214 8 2 14 -3 14 -11 0 -7 -58 -119 -129 -248 l-129 -234 -81 -300 -82
-300 123 -220 123 -219 218 -99 c120 -54 221 -97 224 -94 2 3 -9 79 -26 169
l-31 163 33 202 33 201 108 116 c151 162 168 158 85 -20 l-51 -109 -9 -201 -9
-202 100 -221 c91 -202 108 -233 190 -340 l91 -118 92 -12 c161 -21 250 -24
357 -12 207 23 177 8 279 141 83 108 100 139 191 341 l100 221 -9 202 -9 201
-51 109 c-83 178 -66 182 85 20 l108 -116 33 -201 33 -202 -31 -163 c-17 -90
-28 -166 -26 -169 6 -6 416 175 435 192 7 7 67 108 133 226 l120 214 -82 300
-81 300 -129 234 c-71 129 -129 241 -129 248 0 8 6 13 14 11 7 -2 110 -98 229
-214 l215 -210 53 -229 54 -228 18 43 c19 43 19 47 -2 266 -18 188 -56 414
-98 582 -4 17 -1 22 14 22 13 0 40 -37 97 -132 67 -115 79 -143 93 -216 8 -45
17 -81 19 -79 2 1 10 50 19 107 l16 104 -102 413 c-56 228 -99 416 -96 420 3
3 12 3 19 0 7 -2 113 -192 236 -420 l222 -416 -40 -225 c-22 -124 -40 -228
-40 -232 0 -3 23 13 52 35 48 39 55 51 116 194 68 161 80 183 94 169 8 -8 -6
-171 -31 -369 l-9 -73 -144 -151 c-126 -132 -174 -195 -398 -512 l-255 -361
-265 -145 -265 -144 -140 -167 c-130 -156 -140 -171 -151 -226 -7 -33 -11 -60
-9 -62 1 -2 61 26 133 62 l130 65 155 168 156 168 204 58 c205 58 237 64 237
48 0 -5 -51 -142 -113 -306 l-113 -296 -185 -116 -184 -116 -175 -41 -174 -41
-28 -86 c-22 -71 -27 -107 -29 -201 l-1 -114 60 -185 60 -184 14 -335 15 -335
108 -265 c59 -146 108 -272 109 -280 0 -8 -137 -198 -304 -422 l-304 -407
-190 -77 c-105 -42 -193 -78 -195 -80 -2 -2 779 -4 1737 -4 l1742 0 0 3500 0
3500 -3500 0 -3500 0 0 -3500z"/>
<path d="M1597 5917 l-178 -331 36 -206 c20 -112 38 -206 39 -207 1 -2 32 102
69 230 64 222 221 837 214 843 -1 2 -83 -146 -180 -329z"/>
<path d="M5220 6246 c0 -41 277 -1082 286 -1073 1 1 19 95 39 207 l36 206
-176 329 c-179 332 -185 344 -185 331z"/>
<path d="M1802 5597 c-35 -61 -44 -93 -67 -214 -14 -78 -23 -154 -20 -170 8
-36 47 -145 51 -141 1 2 10 80 18 173 9 94 28 225 42 293 14 68 24 125 22 128
-3 2 -23 -29 -46 -69z"/>
<path d="M5150 5660 c0 -8 9 -53 20 -100 16 -66 57 -391 61 -479 1 -23 38 65
50 117 15 70 -31 307 -77 387 -48 86 -54 94 -54 75z"/>
<path d="M2137 5492 l-157 -158 2 -244 3 -244 64 235 c67 245 72 257 227 527
14 23 23 42 22 42 -2 0 -74 -71 -161 -158z"/>
<path d="M4723 5610 c170 -305 160 -280 228 -529 l64 -235 3 244 2 245 -161
160 c-131 130 -157 152 -136 115z"/>
<path d="M1612 5435 c-11 -38 -39 -134 -62 -213 l-42 -142 18 -103 c26 -155
15 -149 127 -67 53 39 97 77 97 84 0 7 -14 46 -30 87 -22 52 -38 121 -56 234
-13 88 -26 167 -27 175 -2 8 -13 -16 -25 -55z"/>
<path d="M5340 5338 c-17 -123 -31 -184 -57 -247 -18 -47 -33 -90 -33 -97 0
-7 44 -45 97 -84 112 -81 101 -87 127 67 l18 102 -57 198 c-32 109 -61 204
-65 211 -3 7 -17 -60 -30 -150z"/>
<path d="M1244 5350 c3 -14 11 -74 17 -135 l12 -110 111 -116 c61 -64 114
-117 117 -118 6 -1 -26 199 -33 203 -2 2 -35 28 -73 59 -66 52 -73 62 -105
139 -35 87 -55 121 -46 78z"/>
<path d="M5737 5339 c-7 -19 -24 -60 -37 -92 -20 -48 -36 -68 -95 -114 -38
-31 -71 -57 -73 -59 -6 -4 -39 -205 -33 -202 23 11 231 239 231 254 1 11 7 69
14 129 7 61 12 112 10 114 -1 2 -9 -12 -17 -30z"/>
<path d="M1897 5000 l-37 -163 37 -49 38 -49 3 105 c1 58 1 154 0 213 l-3 106
-38 -163z"/>
<path d="M5061 4953 c-1 -117 0 -213 2 -213 2 0 20 22 40 49 l37 49 -35 153
c-20 85 -38 159 -40 164 -2 6 -4 -86 -4 -202z"/>
<path d="M1667 4875 l-98 -73 268 -228 c147 -125 277 -234 287 -243 17 -13 16
-9 -6 29 -14 25 -59 106 -101 180 -42 74 -103 169 -136 210 -34 42 -70 100
-82 132 -12 32 -24 60 -28 62 -3 2 -50 -29 -104 -69z"/>
<path d="M5215 4916 c-8 -20 -21 -51 -29 -68 -7 -18 -40 -67 -73 -108 -48 -59
-137 -207 -251 -415 -3 -5 3 -3 14 6 32 26 353 298 457 387 l98 84 -23 17
c-13 10 -58 44 -101 75 l-78 57 -14 -35z"/>
<path d="M2768 4833 l-56 -58 -17 -103 c-9 -57 -15 -105 -14 -106 2 -2 36 70
75 160 39 90 71 164 70 164 -1 0 -27 -26 -58 -57z"/>
<path d="M4243 4728 c40 -91 74 -164 75 -163 2 2 -4 51 -13 108 l-18 105 -58
58 -58 57 72 -165z"/>
<path d="M1656 4669 c5 -9 98 -141 207 -295 l198 -280 142 -77 c78 -42 175
-95 216 -117 46 -26 69 -34 60 -23 -7 10 -72 89 -144 176 -119 145 -152 177
-385 375 -299 255 -306 261 -294 241z"/>
<path d="M5072 4447 c-245 -208 -286 -248 -398 -382 -185 -221 -180 -213 -92
-165 40 22 137 74 215 117 l142 76 198 280 c199 282 217 307 211 307 -2 -1
-126 -105 -276 -233z"/>
<path d="M2711 4528 l-63 -143 34 -180 34 -179 108 -34 c59 -18 110 -31 112
-29 3 3 -35 94 -83 203 l-89 199 6 150 c3 83 5 151 4 153 0 1 -29 -62 -63
-140z"/>
<path d="M4224 4650 c3 -14 6 -86 7 -160 l2 -135 -87 -194 c-48 -106 -85 -195
-82 -198 2 -2 53 11 112 29 l108 34 34 178 34 179 -52 121 c-29 67 -59 132
-67 146 l-14 25 5 -25z"/>
<path d="M2302 4153 c8 -10 70 -85 138 -168 68 -82 128 -155 134 -162 10 -11
546 -125 546 -116 0 6 -150 203 -154 203 -3 0 -66 20 -143 44 -76 23 -225 82
-330 130 -106 47 -196 86 -199 86 -4 0 0 -8 8 -17z"/>
<path d="M4510 4084 c-102 -46 -252 -105 -334 -131 l-149 -47 -73 -98 c-41
-53 -74 -99 -74 -101 0 -9 535 104 546 116 6 6 67 80 134 162 68 83 130 158
138 168 8 9 11 17 6 16 -5 0 -92 -38 -194 -85z"/>
<path d="M1934 3768 c13 -35 49 -130 81 -213 31 -82 60 -153 64 -158 9 -9 55
289 47 302 -6 10 -201 131 -210 131 -3 0 5 -28 18 -62z"/>
<path d="M4980 3770 c-51 -33 -98 -64 -103 -69 -5 -5 1 -74 14 -160 13 -83 26
-148 30 -144 4 5 33 76 64 158 32 83 68 178 81 213 13 34 20 62 16 62 -4 0
-50 -27 -102 -60z"/>
<path d="M2026 3812 c8 -8 87 -57 333 -210 115 -71 114 -67 -11 67 l-75 82
-121 34 c-128 37 -142 40 -126 27z"/>
<path d="M4841 3784 l-113 -33 -76 -82 c-42 -45 -85 -93 -97 -108 l-20 -26 25
16 c14 9 111 69 215 134 105 65 194 121 200 126 15 15 -13 9 -134 -27z"/>
<path d="M2647 3737 c52 -66 216 -257 219 -257 4 0 150 103 224 158 l34 26
-234 48 c-129 26 -241 47 -248 48 -10 0 -8 -7 5 -23z"/>
<path d="M4105 3711 l-229 -47 127 -92 c69 -51 128 -92 131 -92 3 0 166 190
219 257 18 22 18 23 0 22 -10 -1 -121 -22 -248 -48z"/>
<path d="M2165 3658 c-2 -7 -14 -78 -25 -158 -12 -80 -24 -154 -26 -166 -5
-18 20 -37 177 -134 l181 -114 151 -33 c82 -19 152 -31 155 -29 6 7 -49 120
-135 275 l-69 124 -194 123 c-107 68 -199 123 -203 123 -4 1 -9 -5 -12 -11z"/>
<path d="M4620 3546 l-194 -122 -69 -125 c-86 -155 -141 -268 -135 -275 6 -6
273 52 307 67 13 5 100 58 193 116 167 105 168 106 163 137 -3 17 -16 96 -28
175 -12 79 -26 145 -32 147 -5 1 -98 -53 -205 -120z"/>
<path d="M3090 3593 c-41 -30 -105 -76 -141 -103 l-66 -48 13 -73 c12 -62 27
-95 90 -199 l76 -126 101 -38 c56 -21 107 -41 114 -43 8 -3 48 66 104 180 l93
185 -61 69 c-34 37 -104 109 -155 159 l-93 92 -75 -55z"/>
<path d="M3230 3643 c0 -5 56 -64 125 -133 l125 -125 0 117 0 116 -37 6 c-21
3 -65 8 -98 11 -33 4 -72 9 -87 11 -16 3 -28 2 -28 -3z"/>
<path d="M3685 3639 c-33 -4 -84 -11 -112 -14 l-53 -6 0 -117 0 -117 125 125
c69 69 125 128 125 132 0 9 -1 9 -85 -3z"/>
<path d="M3681 3494 c-83 -86 -151 -160 -151 -165 0 -24 182 -370 193 -366 7
2 58 21 113 42 l102 39 76 125 c63 104 78 138 89 198 16 86 32 64 -145 191
l-127 91 -150 -155z"/>
<path d="M2642 3381 c12 -35 134 -250 141 -248 4 1 25 34 47 73 l39 70 -116
57 c-63 32 -113 53 -111 48z"/>
<path d="M4243 3331 l-111 -56 40 -72 c22 -40 43 -73 46 -73 8 1 145 250 140
255 -2 2 -53 -22 -115 -54z"/>
<path d="M2856 3178 c-20 -36 -36 -70 -36 -75 0 -9 148 -43 183 -43 7 0 -85
154 -103 173 -4 5 -24 -20 -44 -55z"/>
<path d="M3392 3083 l-80 -158 -3 -179 -4 -178 65 6 c36 4 75 9 88 13 l22 5 0
324 c0 178 -2 324 -4 324 -3 0 -41 -71 -84 -157z"/>
<path d="M3520 2919 l0 -327 63 -11 c35 -6 75 -11 88 -11 l24 0 -4 177 -3 177
-74 146 c-40 80 -78 152 -83 160 -8 10 -11 -84 -11 -311z"/>
<path d="M4047 3153 c-30 -49 -53 -89 -52 -91 7 -8 185 31 185 41 0 11 -69
137 -75 137 -2 0 -28 -39 -58 -87z"/>
<path d="M2814 3044 c3 -7 10 -32 16 -56 7 -24 14 -46 16 -49 5 -9 115 14 114
24 0 4 0 15 0 25 0 32 -17 44 -84 56 -55 11 -66 11 -62 0z"/>
<path d="M4121 3044 c-63 -12 -81 -24 -81 -56 0 -10 0 -21 0 -25 -1 -14 111
-32 116 -19 9 26 33 110 31 111 -1 1 -31 -4 -66 -11z"/>
<path d="M2993 3004 c22 -71 21 -72 -20 -83 -21 -5 -55 -13 -75 -16 -35 -7
-37 -9 -32 -34 3 -14 61 -149 128 -298 106 -238 123 -271 134 -255 7 9 42 67
77 127 l63 110 4 184 3 184 -112 44 c-62 24 -127 46 -144 50 -27 5 -31 4 -26
-13z"/>
<path d="M3850 2971 l-125 -48 3 -184 4 -184 63 -110 c35 -60 70 -118 77 -127
11 -16 28 17 134 255 67 149 125 284 128 298 5 25 3 27 -32 34 -20 3 -54 11
-75 16 -41 11 -41 12 -21 82 8 26 -18 21 -156 -32z"/>
<path d="M2894 2560 c3 -80 6 -173 6 -207 l0 -62 107 -125 c58 -69 107 -125
108 -123 1 1 -3 52 -10 112 -11 108 -13 114 -109 325 -54 118 -101 217 -104
220 -2 3 -2 -60 2 -140z"/>
<path d="M4003 2472 c-100 -222 -102 -229 -111 -327 -5 -55 -8 -101 -7 -102 1
-2 49 53 107 121 l105 124 7 202 c5 111 6 203 4 205 -2 2 -49 -99 -105 -223z"/>
<path d="M3365 2536 l-69 -11 -81 -136 -81 -136 13 -133 c12 -129 14 -134 48
-176 l36 -44 125 0 124 0 0 325 0 325 -22 -1 c-13 -1 -54 -6 -93 -13z m-32
-258 c35 -32 35 -35 42 -130 4 -70 3 -98 -6 -104 -7 -4 -41 23 -91 74 l-79 81
37 55 c20 31 42 56 49 56 6 0 28 -15 48 -32z"/>
<path d="M3266 2235 c-20 -30 -14 -45 39 -95 l37 -35 -6 64 c-5 43 -13 69 -24
78 -24 17 -27 16 -46 -12z"/>
<path d="M3520 2225 l0 -325 124 0 125 0 36 44 c34 42 36 47 48 176 l13 133
-81 136 -81 136 -74 12 c-41 6 -83 12 -92 12 -17 1 -18 -21 -18 -324z m244 29
l37 -55 -79 -81 c-50 -51 -84 -78 -91 -74 -9 6 -10 34 -6 104 7 96 7 97 43
129 21 18 42 33 48 33 6 0 28 -25 48 -56z"/>
<path d="M3688 2247 c-11 -9 -19 -35 -24 -78 l-6 -64 37 35 c53 50 59 65 39
95 -19 28 -22 29 -46 12z"/>
<path d="M2812 2332 l-43 -130 -13 -308 c-7 -170 -13 -310 -12 -311 2 -3 391
350 394 359 2 4 -58 80 -133 169 l-137 160 -7 96 -6 95 -43 -130z"/>
<path d="M4138 2369 l-5 -97 -137 -160 c-75 -88 -136 -164 -135 -168 1 -10
374 -347 389 -352 5 -2 7 27 4 65 -2 37 -9 176 -14 308 l-10 241 -43 129 -44
130 -5 -96z"/>
<path d="M2965 1730 c-110 -99 -201 -184 -203 -189 -2 -7 654 -522 706 -554 9
-7 12 69 12 366 l0 375 -53 4 c-48 4 -61 11 -138 74 -46 38 -90 77 -97 86 -7
10 -16 18 -20 18 -4 0 -97 -81 -207 -180z"/>
<path d="M3808 1892 c-7 -10 -51 -49 -97 -87 -76 -62 -88 -69 -137 -73 l-54
-4 0 -375 c0 -353 1 -373 18 -364 47 28 697 539 697 549 0 12 -393 372 -406
372 -4 0 -14 -8 -21 -18z"/>
<path d="M3320 1829 c53 -46 71 -56 118 -63 l42 -6 0 50 0 50 -97 0 -98 -1 35
-30z"/>
<path d="M3520 1810 l0 -50 43 6 c46 7 64 17 117 63 l35 30 -97 1 -98 0 0 -50z"/>
<path d="M2760 1477 c0 -16 362 -1282 368 -1288 7 -6 338 -139 347 -139 3 0 5
198 5 439 l0 439 -347 268 c-192 147 -354 272 -360 277 -7 5 -13 7 -13 4z"/>
<path d="M3877 1203 l-357 -276 0 -438 c0 -242 2 -439 5 -439 9 0 340 133 347
139 9 8 370 1282 365 1287 -1 2 -163 -121 -360 -273z"/>
<path d="M2618 1228 l-97 -240 256 -341 c140 -188 262 -349 269 -357 10 -10 8
6 -6 55 -11 39 -86 304 -166 590 -81 286 -150 523 -153 527 -3 3 -50 -102
-103 -234z"/>
<path d="M4276 1460 c-3 -8 -78 -271 -166 -585 -88 -314 -163 -577 -166 -585
-4 -13 -3 -13 9 0 8 8 130 169 270 357 l256 341 -99 244 c-54 133 -101 236
-104 228z"/>
</g>
</svg>
